<svg xmlns="http://www.w3.org/2000/svg" xmlns:xlink="http://www.w3.org/1999/xlink" width="1482.976" height="960.583" viewBox="0 0 1482.976 960.583"><defs><linearGradient id="a" x1="0.5" x2="0.5" y2="1" gradientUnits="objectBoundingBox"><stop offset="0" stop-color="#892424" stop-opacity="0"/><stop offset="1" stop-color="#f64400"/></linearGradient><linearGradient id="b" x1="1.233" y1="0.5" x2="-0.531" y2="0.5" gradientUnits="objectBoundingBox"><stop offset="0" stop-color="red"/><stop offset="1" stop-color="#df0"/></linearGradient><radialGradient id="h" cx="0.5" cy="0.5" r="0.5" gradientUnits="objectBoundingBox"><stop offset="0" stop-color="#2c0a52"/><stop offset="1" stop-color="#080a15"/></radialGradient><linearGradient id="i" x1="-0.233" y1="0.5" x2="1.531" y2="0.5" gradientUnits="objectBoundingBox"><stop offset="0" stop-color="#c0f"/><stop offset="0.348" stop-color="#67068c"/><stop offset="1" stop-color="#1a0a33"/></linearGradient><radialGradient id="j" cx="0.795" cy="0.602" r="0.976" gradientTransform="matrix(0.53, 0.848, -0.848, 0.53, 0.613, -0.488)" gradientUnits="objectBoundingBox"><stop offset="0" stop-color="#14d8e0"/><stop offset="0.68" stop-color="#0c6d9e"/><stop offset="0.73" stop-color="#0c76a3"/><stop offset="0.82" stop-color="#0c8db2"/><stop offset="0.93" stop-color="#0bb3c9"/><stop offset="1" stop-color="#0bd1db"/></radialGradient><linearGradient id="k" x1="0.853" y1="0.086" x2="0.166" y2="0.894" gradientUnits="objectBoundingBox"><stop offset="0" stop-color="#4db089"/><stop offset="1"/></linearGradient><radialGradient id="l" cx="0.674" cy="0.279" r="1.044" gradientTransform="matrix(0.997, -0.355, 0.379, 0.935, -0.133, 0.295)" gradientUnits="objectBoundingBox"><stop offset="0" stop-color="#cdd40f"/><stop offset="0.68" stop-color="#0e7446"/><stop offset="0.72" stop-color="#177842"/><stop offset="0.79" stop-color="#2e8537"/><stop offset="0.87" stop-color="#549824"/><stop offset="0.96" stop-color="#89b30b"/><stop offset="1" stop-color="#9fbf00"/></radialGradient><linearGradient id="m" x1="0.955" y1="-0.078" x2="-0.436" y2="1.734" xlink:href="#k"/><linearGradient id="n" x1="1.239" y1="-0.34" x2="-0.267" y2="1.319" xlink:href="#k"/><linearGradient id="o" x1="0.264" y1="-1.097" x2="0.583" y2="1.002" xlink:href="#k"/><linearGradient id="p" x1="-0.584" y1="-0.871" x2="0.912" y2="0.996" xlink:href="#k"/><linearGradient id="q" x1="1.233" y1="0.5" x2="-0.531" y2="0.5" gradientUnits="objectBoundingBox"><stop offset="0" stop-color="#c0f"/><stop offset="1" stop-color="#fff"/></linearGradient><linearGradient id="s" x1="-0.233" y1="0.5" x2="1.531" y2="0.5" gradientUnits="objectBoundingBox"><stop offset="0" stop-color="#7d0a99"/><stop offset="1" stop-color="#3a7da9" stop-opacity="0"/></linearGradient><linearGradient id="x" x1="0.5" x2="0.5" y2="1" gradientUnits="objectBoundingBox"><stop offset="0" stop-opacity="0"/><stop offset="0.673" stop-color="#732400" stop-opacity="0.471"/><stop offset="1" stop-color="#f44c00"/></linearGradient><linearGradient id="ak" y1="1" y2="0" xlink:href="#a"/><linearGradient id="bb" x1="-0.233" y1="0.5" x2="1.531" y2="0.5" gradientUnits="objectBoundingBox"><stop offset="0" stop-color="#d04873"/><stop offset="0.351" stop-color="#bb416c"/><stop offset="1" stop-color="#1a0a33"/></linearGradient></defs><g transform="translate(-437.357 -119.417)"><ellipse cx="69.24" cy="11.806" rx="69.24" ry="11.806" transform="translate(449.163 704.866) rotate(30)" fill="url(#a)"/><circle cx="34.78" cy="34.78" r="34.78" transform="translate(493.98 701.267) rotate(30)" fill="url(#b)"/><path d="M2.7,9.721A8.2,8.2,0,0,1,0,4,6.982,6.982,0,0,1,.954.55C10.7.2,21.73,0,33.41,0c13.9,0,26.875.281,37.867.767A6.9,6.9,0,0,1,72.112,4a8.06,8.06,0,0,1-2.5,5.513c-10.628.442-23,.7-36.2.7C22.422,10.21,12.009,10.035,2.7,9.721Z" transform="translate(474.05 733.235) rotate(30)" fill="url(#a)"/><g transform="matrix(0.309, -0.951, 0.951, 0.309, 777.351, 215.173)"><circle cx="15.5" cy="15.5" r="15.5" transform="translate(-0.237 -0.001)" opacity="0.29" fill="url(#b)"/><circle cx="13.5" cy="13.5" r="13.5" transform="translate(1.763 1.999)" opacity="0.29" fill="url(#b)"/><circle cx="11.5" cy="11.5" r="11.5" transform="translate(3.763 3.999)" opacity="0.38" fill="url(#b)"/><circle cx="10.5" cy="10.5" r="10.5" transform="translate(4.763 4.999)" fill="url(#b)"/></g><path d="M1080.458,1293s-27.411-127.11,95.025-187.415-18.274-248.528,137.056-299.7,98.452-231.4,251.269-328.021,232.082-32.893,360-58.477c115.222-20.383,162.868-76.294,283.249-85.888s198.274,47.513,198.274,47.513V1293Z" transform="translate(-485 -213)" fill="url(#h)"/><circle cx="18.5" cy="18.5" r="18.5" transform="translate(1633 254)" fill="url(#i)"/><circle cx="1.5" cy="1.5" r="1.5" transform="translate(923 1018)" fill="#fff"/><circle cx="1.5" cy="1.5" r="1.5" transform="translate(937 948)" fill="#fff"/><circle cx="0.5" cy="0.5" r="0.5" transform="translate(1018 941)" fill="#fff"/><circle cx="0.5" cy="0.5" r="0.5" transform="translate(1000 947)" fill="#fff"/><circle cx="1.5" cy="1.5" r="1.5" transform="translate(1027 953)" fill="#fff"/><circle cx="1.5" cy="1.5" r="1.5" transform="translate(1123 992)" fill="#fff"/><circle cx="1.5" cy="1.5" r="1.5" transform="translate(1046 1006)" fill="#fff"/><path d="M-454.837,789S-23.844,657.822,176.71,664.143s435.567,73.543,536.611,73.543c71.563,0,122.719-2.346,159.238-5.822V789Z" transform="translate(1047.441 291)" fill="#1a4cc3" opacity="0.26"/><circle cx="347" cy="347" r="347" transform="translate(1167 250)" fill="#7a66ff" opacity="0.06"/><circle cx="272" cy="272" r="272" transform="translate(1242 325)" fill="#7a66ff" opacity="0.06"/><g transform="translate(1283.351 385.279)"><path d="M393.763,320.481a54.636,54.636,0,0,1-7.805,27.631,10.186,10.186,0,0,1-7.025,4.956,5,5,0,0,1-3.9-1.834,3.356,3.356,0,0,1-.7-3.9c-1.366-.429-2.771.858-3.083,2.224a13.227,13.227,0,0,0,0,4.293c.429,6.791-5.268,16.157-8.117,22.167a58.31,58.31,0,0,0-5.5,10.771c-1.054,3.9-1.21,8.274-2.069,12.332a37.688,37.688,0,0,1-1.366,4.644,42.93,42.93,0,0,1-9.64,16.079c-4.566,4.1-11.942,5.581-14.167,11.279-1.639,4.1,0,8.82-.819,13.113-1.483,6.556-8.664,9.913-14.947,12.332a17.014,17.014,0,0,1-9.288,1.6,6.012,6.012,0,0,1-1.366-.391c-3.356-1.4-4.839-6.908-1.639-8.625a49.839,49.839,0,0,1-16.547,3.2c-1.483,0-3.2,0-3.9-1.366a3.9,3.9,0,0,1-.39-2.5,22.558,22.558,0,0,1,8.234-14.05c4.176-3.9,9.015-6.556,13.347-10.069a55.693,55.693,0,0,0,15.611-20.06c2.849-6.244,4.644-13.23,9.483-18.069,2.537-2.576,5.776-4.41,8.391-6.869,10.342-9.679,3.434-34.07.507-45.778-4.254-16.937-10.42-33.836-10.069-51.554a207.782,207.782,0,0,1,3.4-26.85c.78-5.269-.508-9.64,2.224-14.323a28.294,28.294,0,0,1,13.386-11.006A20.476,20.476,0,0,1,348.61,229a12.409,12.409,0,0,1,6.088-.273,13.27,13.27,0,0,1,7.805,6.517,29.075,29.075,0,0,1,3.317,15.025c0,9.8-3.083,20.294-1.639,30.089a6.712,6.712,0,0,0,1.483,3.9c2.069,2.107,5.464,1.21,8.391,1.015a19.514,19.514,0,0,1,17.64,12.449A48.355,48.355,0,0,1,393.763,320.481Z" transform="translate(67.307 -68.633)" fill="#f5dbbc"/><path d="M299.141,457.882a5.112,5.112,0,0,1-2.5,1.834,43.316,43.316,0,0,1-17.991,3.669,31.415,31.415,0,0,1-16.859-5c-7.805-5.386-12.605-14.362-16.859-22.987a28.18,28.18,0,0,1-2.693-6.908c-1.093-5.659,1.4-11.708.234-17.25s-5.19-10.147-3.551-15.22c-13.737,2.342-29.387.468-38.831-9.717a33.017,33.017,0,0,1-7.1-29.348,46.52,46.52,0,0,1,16.938-25.718c.976-.82,2.107-1.912,1.717-3.122s-1.093-1.21-1.834-1.639a13.425,13.425,0,0,1-5.112-13.855,39.5,39.5,0,0,1,6.752-14.089,38.519,38.519,0,0,1-8.2-45.622,43.71,43.71,0,0,1,17.25-17.874c1.522-.859,3.044-1.639,4.6-2.342,5.971-2.693,13.7-5.893,19.708-1.6,8.664,6.244,11.435,21.035,12.8,30.948a95.538,95.538,0,0,1-2.381,36.568,320.35,320.35,0,0,0-8.39,31.846,89.487,89.487,0,0,0,7.805,47.924,194.7,194.7,0,0,0,26.031,41.524c8.2,10.615,17.172,21.621,19.006,34.89a4.918,4.918,0,0,1-.546,3.083Z" transform="translate(-192.08 -67.1)" fill="#f5dbbc"/><path d="M278.653,458.894a31.417,31.417,0,0,1-16.859-5c-7.805-5.386-12.606-14.362-16.86-22.987A28.179,28.179,0,0,1,242.241,424c-1.093-5.659,1.4-11.708.234-17.25s-5.19-10.147-3.551-15.22c-13.737,2.342-29.387.468-38.831-9.717a33.017,33.017,0,0,1-7.1-29.348,46.52,46.52,0,0,1,16.938-25.718c.976-.82,2.107-1.912,1.717-3.122s-1.093-1.21-1.834-1.639a13.425,13.425,0,0,1-5.112-13.854,39.5,39.5,0,0,1,6.752-14.089,38.519,38.519,0,0,1-8.2-45.622A43.71,43.71,0,0,1,220.5,230.55,47.808,47.808,0,0,1,212,269.889a7.805,7.805,0,0,0-2.381,5.386,8.352,8.352,0,0,0,2.186,3.9c10.381,13.191,3.9,33.251,11.122,48.471,3.2,6.908,9.327,13.542,7.805,20.957-1.8,8.117-12.215,12.684-12.488,20.957s8.625,12.41,15.611,16.118a21.62,21.62,0,0,1,11.083,10.771c1.6,4.527.468,9.484.624,14.284a26.343,26.343,0,0,0,7.181,17.289,96.976,96.976,0,0,0,11.942,9.444,36.957,36.957,0,0,1,13.347,17.874,22.3,22.3,0,0,1,.625,3.551Z" transform="translate(-192.08 -62.608)" fill="#fcf7ea"/><path d="M288.1,193.052a32.041,32.041,0,0,0-21.738,9.405,17.25,17.25,0,0,0-5.581,15.376,29.074,29.074,0,0,0-14.518,5.62c-3.9,3.512-5.386,10.3-1.639,13.972-8.859,2.381-15.064,10.069-20.645,17.328a24.977,24.977,0,0,0-5.23,9.21,8.508,8.508,0,0,0,3.434,9.327,12.332,12.332,0,0,0,10.771-1.366c13.269-6.4,22.206-15.611,34.382-23.416a66.343,66.343,0,0,1,17.484-8.664c10.693-2.927,21.738-.429,32.587-1.873,9.405-1.249,16.079-2.888,25.836-.546l20.177,4.839c7.3,1.756,15.1,3.512,22.245,1.171s12.957-10.5,9.991-17.406c-2.42-5.659-9.6-8.508-11.2-14.479a36.6,36.6,0,0,1-.585-5.112,18.85,18.85,0,1,0-37.465,3.9c-8.937,0-11.357-5.5-16.079-11.24s-12.606-4.761-19.513-4.293C303.009,195.549,295.79,193.013,288.1,193.052Z" transform="translate(-115.515 -183.869)" fill="#fcf7ea"/><circle cx="192.166" cy="192.166" r="192.166" transform="translate(7.408 386.829) rotate(-78.77)" fill="url(#j)"/><path d="M335.513,302.8c1.054-12.762,2.068-25.523,3.122-38.285a94.31,94.31,0,0,0,1.132-13.62,59.807,59.807,0,0,0-1.249-7.805s-1.327-4.722-1.6-4.137q-19.9,45.739-41.056,91.049a103.623,103.623,0,0,0-6.986,17.952,83.608,83.608,0,0,0-2.186,18.147,207.172,207.172,0,0,0,.507,21.465,21.075,21.075,0,0,0,4.644,13.737,42.227,42.227,0,0,0,18.85-20.372c4.137-8.469,6.634-17.64,10.108-26.421a257.539,257.539,0,0,0,11.708-29.27A126.02,126.02,0,0,0,335.513,302.8Z" transform="translate(82.354 -38.351)" fill="#a6e0d1"/><path d="M361.521,559.05a78.053,78.053,0,0,0,48.744-3.239,72.356,72.356,0,0,1-5.347-24.079c-.273-7.1.781-14.167,1.015-21.27a188.994,188.994,0,0,0-2.537-31.807,7.491,7.491,0,0,0-.859-2.927c-1.288-1.951-3.9-2.068-6.4-1.99a377.2,377.2,0,0,1-42.929,0,156.113,156.113,0,0,0-21.738-1.054c-8.469.547-16.7,3.122-25.133,3.9a103.891,103.891,0,0,1-31.221-3.435,84.766,84.766,0,0,1-31.611-12.293c-10.693-7.805-14.206-18.342-15.611-30.948a12.918,12.918,0,0,1,11.162,1.288,86.407,86.407,0,0,0,10.147,5.7,35.94,35.94,0,0,0,11.005,1.6l27.592,1.015a61.42,61.42,0,0,0,10.381-.234,30.753,30.753,0,0,0,14.518-5.932c3.239-2.42,7.805-5.542,8.43-9.874a15.338,15.338,0,0,0-1.171-6.439,139.137,139.137,0,0,0-12.684-29.972c-3.59-5.776-8.117-11.279-9.288-17.952-1.834-10.5,5.19-20.489,13.035-27.709,3.9-3.9,8.937-10.108,14.635-4.215a22.831,22.831,0,0,1,4.527,10.615,103.966,103.966,0,0,0,35.124,54.637c5.386,4.332,12.332,8.313,18.928,6.205,3.2-1.054,6.205-3.473,9.483-2.888s5.19,3.9,7.22,6.556c7.805,10.42,22.284,13.152,35.124,15.181,7.532-19.513,27.553-30.324,41.524-45.622a131.443,131.443,0,0,0,18.381-27.318,275.136,275.136,0,0,0,24.9-66.891,57.284,57.284,0,0,0,2.029-18.147c-1.054-11.708-8.274-21.894-13.386-32.587-4.8-10.069-8.7-21.972-18.733-26.85a37.9,37.9,0,0,0-16.977-2.615,395.145,395.145,0,0,0-117.626,16.547A248.131,248.131,0,0,0,254.55,284.03a103.029,103.029,0,0,0-22.362,30.909c-4.917,11.4-6.635,23.884-10.381,35.709-5.932,18.655-17.016,36.178-17.367,55.73a80.668,80.668,0,0,0,8.586,34.382,177.689,177.689,0,0,0,39.221,54.91c17.328,16.508,38.48,26.187,57.213,40.431a144.908,144.908,0,0,0,52.061,22.948Z" transform="translate(-156.152 -129.943)" fill="#a6e0d1"/><path d="M441.231,272.528c27.318,52.3,32.821,127.226-20.021,160.4-21.152,13.308-48.042,14.908-72.433,9.445a138.973,138.973,0,0,1-107.83-150.33,91.2,91.2,0,0,1,13.464-41.017c11.357-17.211,30.285-28.489,50.266-33.641,37.973-9.835,85.663-7.532,114.152,22.948a147.2,147.2,0,0,1,22.4,32.2Z" transform="translate(-52.477 -115.904)" fill="url(#k)"/><path d="M592.445,385.706a185.16,185.16,0,0,1-7.259,33.368c-6.6,7.805-7.571,18.186-10.732,27.631A74.971,74.971,0,0,1,559.7,477.379c-2.927,5.542-8.7,9.132-9.522,15.806-5.035,12.332,1.639,24.587.546,37.231-.429,6.127,2.888,14.752-1.639,19.513,1.756.468,3.9-1.483,5.659-2.342,2.147-2.537,5.425-3.278,7.805-5.346,8.7-6.166,12.332-16.7,18.733-24.821,3.9-4.449,9.835-5.112,14.713-7.805a66.078,66.078,0,0,0,10.927-7.025c-2.146-10.147-3.9-20.723-7.025-30.636,2.81-5.659,4.137-12.567,8.976-17.055.39-.546,0-1.288,0-1.873,1.522-13.659-3.9-25.835-9.405-37.895C597.245,405.375,594.982,395.072,592.445,385.706ZM373.429,372.164c-8.313-1.834-19.162-.82-22.323,8.391a18.191,18.191,0,0,0-.976,3.161c-2.576,12.137,8.157,23.1,10.888,34.577,4.644,12.059,8.82,26.772,21.855,32.08,3.9,2.615,9.952,4.371,14.01.937a27,27,0,0,0,.507-11.708,24.821,24.821,0,0,1-2.966-8.82,35.552,35.552,0,0,1-.351-9.327h0c.624-8.781,2.888-17.64-1.444-26.109C391.888,384.5,382.795,376.691,373.429,372.164Zm138-74.15c-1.522-4.449.663-9.288.234-13.971a26.536,26.536,0,0,0-2.381-7.61l-6.791-15.611h2.459a142.984,142.984,0,0,0-10.3-10.342,59.056,59.056,0,0,0-6.673-5.191c-4.878-3.2-10.928-4.1-15.611-7.805-5.932-4.761-11.708-9.679-17.835-14.323a.576.576,0,0,0-.9.039,23.885,23.885,0,0,0-4.215,5.073c-5.191-2.459-8.274-7.376-12.645-10.966-1.366-1.132-14.206-14.01-14.323-13.932-5.62,2.927-10.654,10.615-17.367,8.937a22.752,22.752,0,0,1-8.391-5c-1.249-1.015-6.205-3.629-6.752-4.917a11.708,11.708,0,0,0-7.3-6.478c-4.215-2.888-8.7-5.659-12.918-8.391A124.1,124.1,0,0,1,346.5,214.849a26.772,26.772,0,0,0-8.976,5.737c-.9.312-1.834-.546-2.537-1.054-1.678-1.717-4.8-1.951-5.893-4.293-8.7,5.542-12.8,16.2-18.3,24.274-9.952,12.762-25.679,19.943-36.216,32.548-9.874,11.123-19.747,25.484-34.148,30.206-2.225,5.542-3.9,12.41-10.537,14.206a81.488,81.488,0,0,1-20.528,14.947c3.9,2.459,5.659,26.5,3.59,29.621-1.015,3.356-3.356,6.478-4.644,9.6a49.483,49.483,0,0,1,1.834,16.274,151.17,151.17,0,0,0-10.732,17.757c4.878,9.835,5.815,21.66,9.405,32.08-2.146,6.986,3.434,13.893,2.5,21.465,5.659,10.888-1.288,19.513,0,30.011,6.439,15.884,13.191,31.923,25.016,44.1,1.015,4.683-5.073,15.259,0,18.069,4.254,2.966,7.337,7.805,12.488,9.093,2.81,1.873,3.9,5.542,7.259,7.064,4.644,1.6,5.542,6.4,5.269,10.81,0,.937.234,3.434-1.015,3.9,8.391,5.776,13.854,1.99,13.113,15.142,0,1.639,0,3.4,1.678,3.9a44.371,44.371,0,0,0,14.011-.273c7.805,1.327,14.245,13.737,19.864,19.513a46.831,46.831,0,0,1,24.352-2.068c1.21-.507,1.21.82,1.717,1.444a23.068,23.068,0,0,0,5.815,5.542A182.959,182.959,0,0,0,364.3,617.8c1.132-.429,4.722-2.654,5.893-1.444,1.054,4.176,7.22,3.161,10.5,3.434,10.81,1.6,22.713,2.342,32.821-2.068,1.912-.937,4.176-2.263,6.283-1.366a14.172,14.172,0,0,1,4.215-2.615c-30.909-6.244-8.937-33.368-15.61-54.208-1.912-3.9,1.99-14.4-5.581-12.176-12.84,1.4-25.6,6.127-38.558,4.293-6.478-2.576-10.069-11.435-17.64-12.176-33.563,5.737-41.017,15.611-74.931-2.146-27.865-5.425-43.319-36.294-45.661-62.442h0c4.644-4.566,11.435,2.185,15.611,4.449,22.089,10.849,63.457,5.386,85.858-3.9a42.932,42.932,0,0,1-5.073-9.757,109.271,109.271,0,0,0-4.566-10.732,45.649,45.649,0,0,0-5.152-3.9c-5.932-4.254-12.527-8.352-13.464-16.118.273-12.137,2.927-24.274.234-36.334,5.308-8.976,16-14.908,25.094-19.513,16.9,15.376,9.444-9.6,28.606-24.665,25.953-10.3,43.554,22.518,54.13,41.6,4.527,18.967-8.82,33.016,5.229,50.734,3.317,8.274,9.835,14.167,14.362,21.66a7.805,7.805,0,0,0,9.562,1.912c21.308-7.805,34.773-28.333,50.344-43.827,10.3-12.254,14.479-27.67,20.255-42.149,3.551-8.937,11.981-14.986,17.25-23.065l.429-.7a25.84,25.84,0,0,0,3.044-5.815,27.323,27.323,0,0,0,1.21-7.805c.195-6.283-1.366-12.918,0-18.967,1.834-7.805-10.42-19.123-14.6-24.977a16.9,16.9,0,0,1-2.849-5Z" transform="translate(-170.753 -187.48)" fill="url(#l)"/><path d="M239.334,198.294a26.615,26.615,0,0,1-5.62-2.186c-.507-.273-1.4-.429-1.522,0a.429.429,0,0,0,0,.312c.312,2.927,1.522,8,4.566,9.21A47.5,47.5,0,0,1,243.275,210a11.942,11.942,0,0,0,7.025,1.639,23.961,23.961,0,0,0,6.517-1.873l7.181-2.81a16.859,16.859,0,0,0,8.039-5.191,22.323,22.323,0,0,0-16.2-4.527c-2.029.507-3.9,1.366-5.815,1.912a15.024,15.024,0,0,1-6.322,0l-2.849-.507Z" transform="translate(-75.684 -163.354)" fill="#705718"/><path d="M250.817,200.543c1.8,1.483,3.9,2.615,5.581,3.9s3.9,3.9,5.971,5.932a26.42,26.42,0,0,0,6.166,4.215,8.547,8.547,0,0,0,5.815.976,10.809,10.809,0,0,0,3.356-1.951,15.61,15.61,0,0,0-6.478-5.073,73.671,73.671,0,0,1-7.493-3.629,9.094,9.094,0,0,1-2.537-2.342c-.507-.781-.859-1.678-1.366-2.459a10.537,10.537,0,0,0-2.264-2.107l-3.9-3.122a47.1,47.1,0,0,0-10.186-6.634,43.364,43.364,0,0,1,2.537,6.01,19.515,19.515,0,0,0,4.8,6.283Z" transform="translate(-42.833 -185.39)" fill="#705718"/><path d="M242.295,209.429a24.317,24.317,0,0,1-4.605-4.566c-.663-.859-1.6-1.444-2.3-2.3s-1.015-2.225-1.327-2.381a53.115,53.115,0,0,0,16.547,3.708,6.362,6.362,0,0,1,2.068.624,2.146,2.146,0,0,1,1.171,1.717,3.239,3.239,0,0,1-.7,1.834c-.781,1.171-1.639,2.342-2.5,3.473a2.46,2.46,0,0,1-.859.82,1.913,1.913,0,0,1-1.054,0,14.323,14.323,0,0,1-6.439-2.927Z" transform="translate(-70.176 -150.762)" fill="#705718"/><path d="M262.892,206.252a2.225,2.225,0,0,1,.351,1.444,10.614,10.614,0,0,1-.429.976c-.39.976.351,2.029,1.171,2.771,2.888,2.576,6.908,3.9,9.639,6.517a2.108,2.108,0,0,0,1.171.781,2.068,2.068,0,0,0,1.171-.351l5.62-3.239a139.855,139.855,0,0,1-12.059-9.874c-4.41-4.215-8.235-9.054-12.957-12.957a17.748,17.748,0,0,1,1.171,3.356c.39.859.781,1.756,1.21,2.615C260.239,200.945,261.566,203.6,262.892,206.252Z" transform="translate(-4.838 -173.576)" fill="#705718"/><path d="M278.3,212.228c1.483,1.054,2.771,2.381,4.332,3.317a16.823,16.823,0,0,0,3.9,1.639A36.063,36.063,0,0,1,299.885,223c1.249,1.093,2.263,2.42,3.473,3.59a16.389,16.389,0,0,0,4.605,3.161,22.086,22.086,0,0,0-4.8-5.464,36.023,36.023,0,0,0-10.264-7.454c-1.678-.7-3.473-1.132-5.151-1.756a25.061,25.061,0,0,1-4.6-2.225,58.774,58.774,0,0,1-6.556-5.073,34.855,34.855,0,0,1-5.307-4.878,22.868,22.868,0,0,0-6.049-5.581C267.415,204.267,272.528,208.169,278.3,212.228Z" transform="translate(20.299 -159.063)" fill="#705718"/><path d="M427.271,294.238a16.543,16.543,0,0,0-1.99-5.073c-5.269-9.913-11.435-20.645-22.011-24.352l10.5-.9c-2.3-6.439.507-13.971-2.342-20.177a20.761,20.761,0,0,0-5.776-6.869,74.737,74.737,0,0,0-19.2-12.723,173.277,173.277,0,0,0-40.119-13.659,173.771,173.771,0,0,0-17.991-3.9c-2.225-2.225-4.566-4.371-6.947-6.439a5.076,5.076,0,0,0-1.522-1.054,6.516,6.516,0,0,0-3.239,0,21.976,21.976,0,0,1-4.176-.585,34.848,34.848,0,0,0-8.976-1.054l3.551,6.752a1.091,1.091,0,0,1,0,.468c0,.39-.429.625-.78.781a23.415,23.415,0,0,0-11.708,11.708,28.841,28.841,0,0,0,10.108,5.854,7.493,7.493,0,0,0,4.332,2.732,64.083,64.083,0,0,1,8.273,1.288,16.08,16.08,0,0,0,2.3,10.264,29.956,29.956,0,0,1-4.956,1.366c-2.264.78-4.371,2.185-6.674,3.005a40.626,40.626,0,0,1-14.635,2.3,25.993,25.993,0,0,0-5.23,0,17.88,17.88,0,0,0-3.629,1.171,251.745,251.745,0,0,1-23.962,9.093l-29.738,8.742a42.538,42.538,0,0,0,2.029,20.723,209.609,209.609,0,0,1,28.1-9.288,83.825,83.825,0,0,0-17.25,14.674l4.332,7.805a21.425,21.425,0,0,1,9.171-2.342,21.66,21.66,0,0,0-8.625,14.479,64.59,64.59,0,0,0,14.049-3.59,3.122,3.122,0,0,0-.507,4.137A72.433,72.433,0,0,1,307.3,328.152a227.561,227.561,0,0,1,22.557-17.484c-3.2,6.556-6.088,13.308-8.664,20.177a5.347,5.347,0,0,0-.39,4.137c.742,1.561,2.693,2.068,3.9,3.317,1.951,2.225.742,5.659-.546,8.313a203.221,203.221,0,0,0,19.513,15.3,36.879,36.879,0,0,1,14.245-13.347,298.938,298.938,0,0,0-6.713,34.187c6.127.468,12.293.7,18.42.585a2.381,2.381,0,0,0,2.966-2.459c.82-4.644,1.678-9.327,2.5-14.011l3.9,6.869a76.531,76.531,0,0,0,19.982-15.884,8.548,8.548,0,0,0,2.225-3.434,9.95,9.95,0,0,0,0-4.293c-1.054-6.01-2.068-12.02-3.122-17.991,1.678,3.9,3.317,7.805,4.956,11.708,0,0,5.307-8.313,5.737-9.444a15.846,15.846,0,0,0,1.21-10.186c-1.132-5.073-2.224-10.147-3.356-15.181a77.633,77.633,0,0,1,9.834,12.684c6.166-5.191,8.43-13.5,10.381-21.308a16.235,16.235,0,0,0,.429-6.166Z" transform="translate(-81.211 -158.688)" fill="#705718"/><path d="M273.243,218.325a4.791,4.791,0,0,0-.312.468,2.863,2.863,0,0,1-3.9,1.561,23.807,23.807,0,0,0-8.313,0l7.61,3.512a16.937,16.937,0,0,0-6.127,7.415l-8.117-2.654a8.2,8.2,0,0,1-3.9-2.225,26.772,26.772,0,0,1-9.406,6.361,78.437,78.437,0,0,1-12.645,7.025,59.159,59.159,0,0,0,3.434-9.874,23.143,23.143,0,0,0-5.893-1.366c7.532-8.859,15.611-17.016,23.962-25.25a163.9,163.9,0,0,1,30.05,9.21C277.692,211.613,274.414,216.491,273.243,218.325Z" transform="translate(-94.529 -141.705)" fill="#705718"/><path d="M239.84,238.726c1.717,2.342,3.044,4.8,4.605,7.181a58.524,58.524,0,0,1,5.23,7.376,27.32,27.32,0,0,1,8.43-5.112l-3.629,17.171a4.449,4.449,0,0,0,0,1.6,3.9,3.9,0,0,0,1.171,1.6,35.978,35.978,0,0,1,5.5,8.352,7.142,7.142,0,0,1,3.278-3.591,42.7,42.7,0,0,0,1.4,10.147,2.771,2.771,0,0,1,3.9.234,7.806,7.806,0,0,1,1.834,3.669,33.64,33.64,0,0,0,2.068-19.123c-1.8-11.708-5.151-24.938-16.469-30.987C251.158,234.121,245.928,237.126,239.84,238.726Z" transform="translate(-53.399 -47.134)" fill="#705718"/><path d="M316.21,271.844a2.968,2.968,0,0,1,.351,1.8,2.576,2.576,0,0,1-.664.937,19.24,19.24,0,0,1-10.147,6.947c-1.21-3.551-2.42-7.1-3.669-10.654-.624-1.873-1.99-4.176-3.9-3.668.273,0,2.693-12.918,3.161-14.284.7-2.029,2.576-9.366,6.244-7.805,2.264.9,2.81,10.03,3.434,12.371a99.958,99.958,0,0,0,5.191,14.362Z" transform="translate(115.941 -20.971)" fill="#705718"/><path d="M299.579,277.545a24.37,24.37,0,0,1-2.224,3.629,31.218,31.218,0,0,0-3.278,3.9,6.908,6.908,0,0,0,5.464,10.264l5.19-9.171a9.132,9.132,0,0,0,.9-1.99,8.366,8.366,0,0,0,0-2.42,79.237,79.237,0,0,1,.859-13.269c.781-5.347,3.434-10.381,3.9-15.611a16.43,16.43,0,0,0-5.347,10.615A46.828,46.828,0,0,1,299.579,277.545Z" transform="translate(101.468 2.208)" fill="#705718"/><path d="M216.87,237.833c2.225,3.2,5.347,6.83,9.21,6.127-1.756,2.888-3.512,5.776-5.308,8.664,4.41,2.81,10.615,2.771,13.932,6.752,2.342,2.81,2.615,6.869,4.839,9.757a17.523,17.523,0,0,0,11.708,5.073l-8.508-11.083a12.254,12.254,0,0,1-3.044-5.893c-.273-2.849,1.288-6.088-.429-8.352s-4.839-1.756-6.791-3.473l11.942-24.274-6.6,3.629a70.517,70.517,0,0,0-10.459-.82C237.359,228.662,220.929,236.233,216.87,237.833Z" transform="translate(-120.073 -89.951)" fill="#705718"/><path d="M324.49,279.174c3.239-14.83-2.888-30.128-10.771-43.124a22.75,22.75,0,0,0-6.127-7.337,12.879,12.879,0,0,0-19.24,7.805c-1.717,7.259,1.015,18.733,3.317,25.914C294.908,272.735,319.767,300.483,324.49,279.174Z" transform="translate(85.846 -73.494)" fill="url(#m)"/><path d="M293.116,281.087a7.415,7.415,0,0,0,8.976-.508,11.2,11.2,0,0,0,3.629-8.664,23.063,23.063,0,0,0-2.5-9.327,48.7,48.7,0,0,0-7.1-11.006,7.8,7.8,0,0,0-3.9-2.849,5.347,5.347,0,0,0-5.5,3.2C283.672,258.218,287.535,276.912,293.116,281.087Z" transform="translate(79.559 -9.921)" fill="url(#n)"/><path d="M271.259,277.453c-30.558,7.61-9.952,46.832,12.606,49.72,11.474,1.4,23.884-6.205,26.265-17.484a24.82,24.82,0,0,0-6.244-21.035A37.193,37.193,0,0,0,284.371,277.8a28.14,28.14,0,0,0-13.113-.351Z" transform="translate(-6.921 71.766)" fill="url(#o)"/><path d="M243.36,309.107a9.365,9.365,0,0,0,5.034,1.327,10.225,10.225,0,0,0,6.439-4.956A7.534,7.534,0,0,0,256.59,302a7.025,7.025,0,0,0-.819-3.9,59.045,59.045,0,0,0-19.513-24.469c-4.8-3.551-19.982-13.7-24.7-5.815-3.4,5.62,4.956,16.664,8,20.879a66.658,66.658,0,0,0,23.806,20.411Z" transform="translate(-137.821 37.068)" fill="url(#p)"/><path d="M234.732,255.265c6.205-6.205,11.981-12.879,18.5-18.772a209.913,209.913,0,0,1,31.729-22.323,8.585,8.585,0,0,1,3.9-1.6c-2.381-5.191-4.605-10.42-6.634-15.611a41.368,41.368,0,0,0-7.805,13.074,27.709,27.709,0,0,1-9.21,11.2c-2.732,2.264-5.737,4.215-8.547,6.4a101.735,101.735,0,0,0-11.708,10.81c-3.473,3.708-7.22,6.986-10.732,10.615s-6.439,6.4-9.6,9.6c-1.6,1.639-3.239,3.278-4.917,4.839l-.663.663c-1.015.937-4.137,4.878-5.464,4.917C222.166,268.535,229,260.963,234.732,255.265Z" transform="translate(-129.622 -160.108)" fill="#095d5e"/><path d="M216.3,225.513a6.4,6.4,0,0,0,.742-.976,5.425,5.425,0,0,1,3.122-1.951l-3.9-2.966a2.889,2.889,0,0,1-1.21-1.6,11.706,11.706,0,0,1-.9,3.668,15.34,15.34,0,0,1-2.771,3.9c-1.054,1.171-2.146,2.264-3.278,3.356a24.973,24.973,0,0,0,7.064-2.81,4.835,4.835,0,0,0,1.132-.624Z" transform="translate(-145.529 -98.978)" fill="#095d5e"/><path d="M257,207.568a61.238,61.238,0,0,1,6.439,4.488c1.522,1.093,2.3,3.161,3.9,3.9a9.992,9.992,0,0,0,3.4.742,54.167,54.167,0,0,1,12.606,3.122,30.246,30.246,0,0,1-13.894-11.708,9.641,9.641,0,0,1,3.9-2.966c-1.21.546-4.176-4.683-4.527-5.5s-.976-6.752-1.21-6.634l-3.9,2.3c-2.225,1.288-12.762,6.6-11.357,9.874C252.707,206.436,255.985,206.983,257,207.568Z" transform="translate(-17.444 -171.575)" fill="#095d5e"/><path d="M279.664,210.484a68.805,68.805,0,0,1-10.42-13.074c-2.225,2.81-4.1,5.776-6.244,8.625a105.748,105.748,0,0,1,10.927,3.122A11.708,11.708,0,0,0,279.664,210.484Z" transform="translate(13.826 -158.802)" fill="#095d5e"/><path d="M206.165,254.468c1.99-.624,3.044-2.654,3.9-4.488,4.644-8.664,11.708-16.391,13.581-26.07-.273,1.327-7.181,1.717-8.235,1.873a29.425,29.425,0,0,1-12.644.39c.585,4.8,2.615,9.054,3.122,13.854C206.2,241.511,207.57,254.038,206.165,254.468Z" transform="translate(-161 -81.882)" fill="#095d5e"/><path d="M266.99,220.334a49.331,49.331,0,0,0-18.967,16.391,41.129,41.129,0,0,1,8.742,4.254,8.625,8.625,0,0,0-3.59,4.176A92.727,92.727,0,0,0,284.4,254.17a68.841,68.841,0,0,1-20.645-12.293A83.237,83.237,0,0,1,278.035,224.2a33.094,33.094,0,0,1-10.81-8.742c1.249,1.522,6.713.234,8.391.312a68.152,68.152,0,0,1,9.679,1.444l-11.708-8.625c-1.834-1.366-3.668-2.693-5.425-4.176a53.982,53.982,0,0,1-7.805-8.157,49.781,49.781,0,0,1-3.161-4.371c-1.4-2.068-1.015-2.615-2.966-1.483a47.571,47.571,0,0,0-8.274,9.132c-1.132,1.249-6.556,8.9-7.805,8.859a37.035,37.035,0,0,1,16.937,4.917C258.678,215.689,263.829,216.938,266.99,220.334Z" transform="translate(-58.304 -180.828)" fill="#095d5e"/><path d="M424.8,270.035c-4.722,7.805-8.274,16.157-12.645,24.118a133.392,133.392,0,0,1-45.076,48.041,9.6,9.6,0,0,1-4.488,1.8,8.547,8.547,0,0,1-5.112-2.068A40.431,40.431,0,0,1,341.867,317.8c-2.654-12.45.663-25.484-1.483-38.012-3.122-18.225-17.172-32.353-30.519-45.154a22.944,22.944,0,0,0-5.308-4.215,17.757,17.757,0,0,0-10.459-1.444,36.763,36.763,0,0,0-26.772,16.7c-2.263,3.629-4.839,8.235-9.132,8.117-1.366,0-2.732-.624-4.1-.546a8.821,8.821,0,0,0-3.708,1.4l-14.167,7.805a25.288,25.288,0,0,0-10.615,8.82c-3.4,6.205-1.093,13.737-.663,20.8.351,6.01-.742,12.02-.273,18.03a24.977,24.977,0,0,0,17.016,20.879c-5.932-4.254-12.528-8.352-13.464-16.118.273-12.137,2.927-24.274.234-36.333,5.308-8.976,16-14.908,25.094-19.513,16.9,15.376,9.444-9.6,28.606-24.665,25.952-10.3,43.553,22.518,54.13,41.6,4.527,18.967-8.82,33.016,5.229,50.734,3.317,8.274,9.835,14.167,14.362,21.66a7.805,7.805,0,0,0,9.562,1.912c21.308-7.805,34.772-28.333,50.344-43.827,10.3-12.254,14.479-27.67,20.255-42.149,3.551-8.937,11.981-14.986,17.25-23.065l.429-.7a91.789,91.789,0,0,0-28.919,29.5Z" transform="translate(-100.008 -67.867)" fill="#095d5e"/><path d="M333.852,306.955a46.83,46.83,0,0,1-10.3-18.264,72.6,72.6,0,0,0,7.3-7.805,5.464,5.464,0,0,0,1.561-3.4c0-2.459-1.483-3.356-.273-5.854a38.346,38.346,0,0,1,3.9-5.151,19.083,19.083,0,0,0,5.62-10.225,28.142,28.142,0,0,1-7.376,3.356c-3.317,1.678-6.6,3.512-9.874,5.23a47.61,47.61,0,0,1-4.254-10.186c-2.3,11.981.234,24.47-1.951,36.451a64.786,64.786,0,0,1-16.781,10.381l-3.9-14.167a28.137,28.137,0,0,0-5.971,12.762,59.868,59.868,0,0,0-.664,9.913l-.234,39.651A32.9,32.9,0,0,0,303.412,336.3a82.649,82.649,0,0,1,10.459-15.611,59.671,59.671,0,0,1,22.714-12.644C335.569,308.555,334.555,307.736,333.852,306.955Z" transform="translate(94.084 7.374)" fill="#095d5e"/><path d="M280.083,284.72c-.82,3.9-.312,7.493-2.888,11.083a3.629,3.629,0,0,1-1.132,1.171,3.9,3.9,0,0,1-2.732,0c-13.074-2.81-17.25-16.118-19.513-27.709a29.191,29.191,0,0,0-1.951-7.571,30.987,30.987,0,0,0-3.9-5.62,51.825,51.825,0,0,1-6.986-11.708c-.585-1.366-1.366-5.464-2.654-6.556-2.576,12.137,8.157,23.1,10.888,34.577,4.644,12.059,8.82,26.772,21.855,32.08,3.9,2.615,9.952,4.371,14.01.937a27.006,27.006,0,0,0,.507-11.708,24.82,24.82,0,0,1-2.966-8.82,35.548,35.548,0,0,1-.351-9.327C281.683,278.593,280.746,281.481,280.083,284.72Z" transform="translate(-58.947 -41.535)" fill="#095d5e"/><path d="M402.923,472.259a64.114,64.114,0,0,1,.7-18.694,111.144,111.144,0,0,0,0-23.065,4.332,4.332,0,0,0-1.015-2.81c-1.171-1.054-2.966-.585-4.41,0a94.206,94.206,0,0,1-23.65,2.966A21.074,21.074,0,0,1,362.1,428.51a28.8,28.8,0,0,0-12.293-2.966,93.219,93.219,0,0,0-12.293-1.327,47.925,47.925,0,0,0-13.5,1.6c-3.9,1.015-7.805,2.537-11.708,3.278a62.427,62.427,0,0,1-14.05.468,34.225,34.225,0,0,1-17.6-3.9c-2.654-1.756-4.956-3.9-7.805-5.581s-6.166-3.9-9.249-5.62a41.836,41.836,0,0,1-15.142-13c-2.224-3.9-6.439-5.659-8.976-9.289a66.344,66.344,0,0,1-5.191-9.561c-5.151-10.966-10.3-22.4-10.459-34.539,0-.546,0-1.21.624-1.4h0c4.644-4.566,11.435,2.185,15.611,4.449,22.089,10.849,63.457,5.386,85.858-3.9a42.929,42.929,0,0,1-5.073-9.757,31.1,31.1,0,0,0,.273,5.034,1.252,1.252,0,0,1,0,.546.273.273,0,0,1,0,.2c-.7.351-2.693-2.146-3.434-2.42a16.2,16.2,0,0,0-10.264,0,58.282,58.282,0,0,0-8.313,4.371,55.377,55.377,0,0,1-27.318,5.5,60.8,60.8,0,0,1-25.679-5.269c-4.878-2.38-9.21-5.659-13.971-8.234a6.518,6.518,0,0,0-2.654-.9,10.226,10.226,0,0,0-3.473,1.054c-1.873.742-3.9,1.873-5.5.7a7.22,7.22,0,0,1-2.185-4.332c-1.834-7.805-3.629-15.806-5.464-23.689a20.368,20.368,0,0,1-.585-3.434,30.433,30.433,0,0,1,.7-5.308,68.348,68.348,0,0,0,.625-10.186,29.093,29.093,0,0,1,.2-4.137l.507.351c2.029,1.6,3.317,3.9,5.308,5.464a97.561,97.561,0,0,0,6.947-12.332c.234-.429.625-.937,1.093-.82s.585.624.7,1.054a11.24,11.24,0,0,0,4.605,6.6,2.732,2.732,0,0,0,1.483.586,2.887,2.887,0,0,0,1.522-.625c6.908-5.073,5.308-16.625,11.708-22.518-.468,1.756,1.834,3.2,3.59,2.693a7.8,7.8,0,0,0,3.9-3.9L274.76,231.7l-15.611,18.538a6.439,6.439,0,0,1-2.927,2.3,6.517,6.517,0,0,1-3.122,0l-8.274-1.912a34.733,34.733,0,0,0-4.254,16.118,3.629,3.629,0,0,1-.546,2.42,3.16,3.16,0,0,1-1.483.859l-8.586,3.161a2.654,2.654,0,0,1-1.717.2c-.429,0-.742-.468-1.21-.546s-1.093.39-1.522.82l-5.893,6.049-4.761-5.5c.351-2.264.7-4.527,1.132-6.752a52.139,52.139,0,0,1-16.2,9.366,117.351,117.351,0,0,1,9.054,35.124,111.611,111.611,0,0,0,1.678,12.488c1.327,5.971,4.1,11.708,5.854,17.367a14.985,14.985,0,0,1,.859,5.542,21.388,21.388,0,0,1-3.629,8.469,8.273,8.273,0,0,0-1.288,3.9,8.7,8.7,0,0,0,.742,3.278,133.275,133.275,0,0,0,23.767,39.924,6.6,6.6,0,0,1,.39,6.6,15.064,15.064,0,0,0-1.522,7.025,11.4,11.4,0,0,0,4.449,6.127,78.093,78.093,0,0,0,8.43,6.752,14.786,14.786,0,0,1,2.888,2.263c.742.82,1.249,1.834,1.951,2.693a33.806,33.806,0,0,0,5.581,3.9,10.771,10.771,0,0,1,3.9,7.805v2.81a6.439,6.439,0,0,0,2.693,4.605c1.405,1.015,3.161,1.4,4.644,2.342,4.644,2.849,4.605,8,4.722,12.8a6.715,6.715,0,0,1,2.654-.351H288.77a5.734,5.734,0,0,1,3.044.546,23.844,23.844,0,0,1,6.361,6.869,76.843,76.843,0,0,0,9.991,11.4,88.662,88.662,0,0,0,12.41-1.327,28.1,28.1,0,0,1,5.112-.585,25.411,25.411,0,0,1,3.9.585c2.459.546,6.83.585,8.039,3.278.546,1.21.937,2.732,2.146,3.239a4.177,4.177,0,0,0,2.576,0l8.508-2.3a69.074,69.074,0,0,0,9.366-3.044,15.611,15.611,0,0,1,10.381-2.341c.82,2.146,2.849,2.459,5.112,2.849a109.938,109.938,0,0,0,29.5,1.015,24.268,24.268,0,0,0,4.41-.78,14.009,14.009,0,0,0,5.308-2.849,15.1,15.1,0,0,1-12.02-12.567Zm-68.765-2.615a6.988,6.988,0,0,1-3.9.858c-3.9-.546-5.347-6.751-9.288-6.829a6.907,6.907,0,0,0-4.332,2.107l-6.01,4.917c-2.576-6.088-5.112-12.137-7.805-18.186a1.756,1.756,0,0,0-2.185-1.288c-1.561,0-8.43,1.093-8.937-.273-1.561-4.254-.546-10.615-4.566-14.05a95.5,95.5,0,0,0,62.715,22.557A62.437,62.437,0,0,1,334.158,469.644Z" transform="translate(-169.65 -59.27)" fill="#095d5e"/><path d="M203.307,251.8a38.012,38.012,0,0,0,3.59-8.859,31.223,31.223,0,0,0,2.693-8.079c-.2-1.6,0-.7-1.327-.585s-1.951.429-2.966.507c-1.717,0-2.654,0-2.927,1.678a61.162,61.162,0,0,0,1.249,7.805,19.786,19.786,0,0,1-.312,7.532Z" transform="translate(-162.161 -52.83)" fill="#095d5e"/><path d="M364.211,306.644a34.89,34.89,0,0,1-26.031.234,4.644,4.644,0,0,0-3.9-.2c-3.356,1.99-7.181,10.225-5.347,13.854a14.744,14.744,0,0,0,2.966,3.473,18.03,18.03,0,0,1-1.522,25.328,9.991,9.991,0,0,1-11.474,1.6c-6.205,8.079-13.5,16.742-23.143,18.967a20.83,20.83,0,0,1-3.122.507,12.215,12.215,0,0,1-12.215-5.776c-2.966-6.4,1.6-17.8,5.776-22.83a13.074,13.074,0,0,1,10.225-5.151c3.2,0,6.517,1.8,9.444.507a6.947,6.947,0,0,0,3.9-5.5,27.629,27.629,0,0,0-.234-6.947,18.307,18.307,0,0,1,.507-7.805c1.678-4.644,6.6-5.854,10.5-8a11.4,11.4,0,0,0,6.556-9.522,14.754,14.754,0,0,1,0-3.2,7.531,7.531,0,0,1,1.171-2.693,61.7,61.7,0,0,0,8.937-14.947c1.678-5.62-.39-12.957-6.01-14.518a20.171,20.171,0,0,0-4.332-.468c-18.538-1.366-29.7-23.845-23.884-40.549a7.532,7.532,0,0,0,.742-5c-1.015-2.966-5.113-3.083-8.235-2.888A51.866,51.866,0,0,1,278,213.176a19.787,19.787,0,0,1-8.781-4.566,8.937,8.937,0,0,1-2.537-9.132,11.708,11.708,0,0,1,10.147-6.4c7.064-.976,15.61,1.093,18.537,5.229a38.206,38.206,0,0,0,5.19,7.337c4.761,3.9,11.708,1.6,17.757,0a65.566,65.566,0,0,1,28.294,1.6,20.84,20.84,0,0,1,11.2,5.581,16.585,16.585,0,0,1,3.552,12.645,49.054,49.054,0,0,1-3.669,12.957,18.342,18.342,0,0,1,14.518,18.655c-.39,5.191-3.629,10.576-.976,15.611,1.171,2.185,2.849,3.9,3.9,6.322a22.752,22.752,0,0,1-10.927,27.631Z" transform="translate(23.451 -172.07)" fill="#fcf7ea"/><path d="M365.489,297.89a24.081,24.081,0,0,1-7.571,6.478c-7.337,3.434-13.62-1.444-20.84-1.99a12.957,12.957,0,0,0-10.264,3.239c-4.761,4.878-6.556,15.611-2.186,20.957a29.075,29.075,0,0,1,4.332,5.269c2.146,4.605-1.834,9.952-6.478,12.059s-9.952,2.342-14.557,4.527a37.037,37.037,0,0,0-11.708,10.42,6.049,6.049,0,0,0-1.6,2.888,8.546,8.546,0,0,0,.9,3.551,8.9,8.9,0,0,1,.234,4.41,20.849,20.849,0,0,1-3.122.507,12.215,12.215,0,0,1-12.215-5.776c-2.966-6.4,1.6-17.8,5.776-22.831a13.075,13.075,0,0,1,10.225-5.151c3.2,0,6.517,1.8,9.444.507a6.947,6.947,0,0,0,3.9-5.5,27.638,27.638,0,0,0-.234-6.947,18.3,18.3,0,0,1,.507-7.805c1.678-4.644,6.6-5.854,10.5-8a11.4,11.4,0,0,0,6.557-9.522,14.756,14.756,0,0,1,0-3.2,7.534,7.534,0,0,1,1.17-2.693,61.7,61.7,0,0,0,8.937-14.947c1.678-5.62-.39-12.957-6.01-14.518a20.183,20.183,0,0,0-4.332-.468c-18.538-1.366-29.7-23.845-23.884-40.548a7.532,7.532,0,0,0,.742-5c-1.015-2.966-5.112-3.083-8.234-2.888a51.867,51.867,0,0,1-17.484-1.951,19.785,19.785,0,0,1-8.781-4.566,8.937,8.937,0,0,1-2.537-9.132,11.708,11.708,0,0,1,10.147-6.4,6.84,6.84,0,0,1,.468,1.249,19.513,19.513,0,0,0,18.655,13.074,6.673,6.673,0,0,1,4.566.78,10.384,10.384,0,0,1,1.873,3.356c1.366,2.615,4.527,3.9,5.893,6.634,1.8,3.434,0,7.493-.82,11.24-3.9,18.3,17.679,36.763,34.851,28.372a53.505,53.505,0,0,1-12.293-13.581,18.3,18.3,0,0,1-.976-17.562,48.392,48.392,0,0,0,27.748,28.294,13.269,13.269,0,0,0-2.42,11.4,38.753,38.753,0,0,0,4.683,11.045,9.093,9.093,0,0,0-5.581,6.908,9.952,9.952,0,0,0,3.551,8.586C357.605,293.441,364.24,299.334,365.489,297.89Z" transform="translate(23.421 -171.98)" fill="#f5dbbc"/><path d="M277.454,204.562c-3.668,2.615-8.313,4.8-9.561,9.132a32.629,32.629,0,0,0-.507,5.854,21.737,21.737,0,0,1-10.615,15.025c-5.269,3.512-11.24,5.854-16.43,9.483a3.9,3.9,0,0,0-1.366,1.444,3.669,3.669,0,0,0,.585,2.849h0A21.543,21.543,0,0,1,238.35,267c-3.9,7.571-9.64,15.611-18.928,14.479a14.792,14.792,0,0,1-9.913-5.62,17.6,17.6,0,0,1-3.4-13.659,30.636,30.636,0,0,1,13.035-18.85l-1.132-.468a19.826,19.826,0,0,1-6.556-4.956,14.947,14.947,0,0,1-3.9-10.966,20.645,20.645,0,0,1,12.254-16.391c3.9-1.639,7.805-2.3,11.708-3.669,10.381-3.668,15.259-9.249,27.084-5.073V201.6a12.371,12.371,0,0,1,.7-2.42,15.611,15.611,0,0,1,18.811-8.547,8.741,8.741,0,0,1,2.693,1.522,3.63,3.63,0,0,1,.82.9C284.44,196.835,281.162,201.869,277.454,204.562Z" transform="translate(-152.011 -180.471)" fill="#fcf7ea"/><path d="M274.745,202.8c-3.668,2.615-8.313,4.8-9.561,9.132a32.626,32.626,0,0,0-.507,5.854,21.737,21.737,0,0,1-10.615,15.025c-5.269,3.512-11.24,5.854-16.43,9.483a3.9,3.9,0,0,0-1.366,1.444,3.669,3.669,0,0,0,.585,2.849h0a21.543,21.543,0,0,1-1.21,18.655c-3.9,7.571-9.64,15.611-18.928,14.479a14.792,14.792,0,0,1-9.913-5.62l1.717.234a20.294,20.294,0,0,0,17.952-32,4.448,4.448,0,0,0-1.171-1.249,4.683,4.683,0,0,0-2.732-.429c-2.42,0-4.839.429-7.259.468a19.825,19.825,0,0,1-6.556-4.956,42.149,42.149,0,0,0,21.347-3.9c7.376-3.9,12.215-11.357,16.742-18.421a5.19,5.19,0,0,0,7.376.546,15.8,15.8,0,0,0,4.254-7.025,13.972,13.972,0,0,1,4.449-6.869,10.343,10.343,0,0,1-7.025-.625,12.369,12.369,0,0,1,.7-2.419h6.439a20.685,20.685,0,0,0,9.991-1.873,15.611,15.611,0,0,0,5.073-5.034,3.629,3.629,0,0,1,.82.9C281.731,195.077,278.453,200.112,274.745,202.8Z" transform="translate(-149.302 -178.714)" fill="#f5dbbc"/><path d="M392.166,331.432c-5.62,6.791-12.644,13.776-12.371,22.557,0,4.332,2.107,8.508,1.912,12.84a24.274,24.274,0,0,1-6.6,13.464,154.3,154.3,0,0,1-18.3,18.811c-7.376,6.4-16.079,12.371-25.874,12.527-4.254,0-8.469-.976-12.762-.937a12.605,12.605,0,0,0-11.044,5.229c-.937,1.6-1.288,3.473-2.107,5.152a17.172,17.172,0,0,1-13.776,7.805c-9.562,1.288-30.246,0-41.992-6.986a17.756,17.756,0,0,1-7.805-8.117C236.06,400.86,263.5,386.03,273.253,395.4c3.2,3.083,4.293,7.805,7.337,11.044,1.99,2.068,10.927,6.439,13.191,3.239a5,5,0,0,0,.468-3.9,22.986,22.986,0,0,1-.7-3.9,10.344,10.344,0,0,1,1.6-4.683,17.484,17.484,0,0,1,4.488-5.737,7.337,7.337,0,0,1,6.908-1.288,23.064,23.064,0,0,1-9.171-19.279,33.172,33.172,0,0,1,6.01-17.952,1.4,1.4,0,0,1,.273-.39,49.172,49.172,0,0,1,12.41-12.684,12.527,12.527,0,0,1,9.093-2.966,11.4,11.4,0,0,1,5.347,2.966A31.221,31.221,0,0,1,341.041,364.8c0,1.444,0,3.2,1.054,3.9a1.168,1.168,0,0,0,.429.234,16.346,16.346,0,0,0,1.99.39,4.956,4.956,0,0,1,3.9,4.293A70.247,70.247,0,0,0,362.9,326.437c-.664-9.874-3.4-19.942-.664-29.465a53,53,0,0,1,7.805-14.518c1.171-1.756,2.381-3.551,3.629-5.269,5.307-7.337,11.708-14.128,20.138-16.2a8.9,8.9,0,0,1,4.839,0,10.654,10.654,0,0,1,5.7,6.127C414.216,287.917,406.879,313.714,392.166,331.432Z" transform="translate(-50.751 24.773)" fill="#fcf7ea"/><path d="M319.207,313.7a18.928,18.928,0,0,1,2.263,7.1c0,6.83-7.805,10.576-14.088,12.8a7.8,7.8,0,0,0-3.434,1.8c-2.537,2.654-.742,7.259-2.381,10.537a57.217,57.217,0,0,1-13.074,5.659c-6.4,1.015-12.566-2.263-18.694-4.41s-13.971-2.693-18.108,2.3a22.626,22.626,0,0,0-2.42,4.1,17.757,17.757,0,0,1-7.805-8.117c-5.386-12.918,22.05-27.748,31.806-18.382,3.2,3.083,4.293,7.805,7.337,11.044,1.99,2.068,10.927,6.439,13.191,3.239a5,5,0,0,0,.468-3.9,22.959,22.959,0,0,1-.7-3.9,10.342,10.342,0,0,1,1.6-4.683,17.486,17.486,0,0,1,4.488-5.737,7.337,7.337,0,0,1,6.908-1.288,23.065,23.065,0,0,1-9.171-19.279,33.173,33.173,0,0,1,6.01-17.952,1.4,1.4,0,0,1,.273-.39,28.1,28.1,0,0,0,5.893,14.674,87.746,87.746,0,0,1,6.635,8.157,57.68,57.68,0,0,1,3,6.635Z" transform="translate(-50.693 93.234)" fill="#f5dbbc"/><path d="M294.574,332.563a35.9,35.9,0,0,0-1.639,8.586c0,2.927.507,5.815.663,8.742a58.93,58.93,0,0,1-5.425,23.689A32.314,32.314,0,0,0,266.865,387.9c-.273-4.1-.585-8.156-.859-12.215a32.085,32.085,0,0,1,0-8.43,52.538,52.538,0,0,1,3.356-8.82c.234-.585.468-1.171.664-1.756a16.287,16.287,0,0,0,1.99.39,4.956,4.956,0,0,1,3.9,4.293A70.247,70.247,0,0,0,290.4,314.181c-.664-9.874-3.4-19.942-.664-29.465A53,53,0,0,1,297.54,270.2c1.171-1.756,2.381-3.551,3.629-5.269a54.636,54.636,0,0,0-3.4,26.889,43.787,43.787,0,0,0,7.22,18.655C299.179,316.367,296.76,324.64,294.574,332.563Z" transform="translate(21.747 37.185)" fill="#f5dbbc"/><path d="M343.968,320.423a48.355,48.355,0,0,0-2.3-22.674,19.513,19.513,0,0,0-17.64-12.45c-2.927,0-6.322,1.093-8.391-1.015a6.713,6.713,0,0,1-1.483-3.9c-1.444-9.8,1.483-20.294,1.639-30.089a29.074,29.074,0,0,0-3.317-15.025,13.27,13.27,0,0,0-7.805-6.517,12.41,12.41,0,0,0-6.088.273,74.148,74.148,0,0,0,4.137,11.318,91.32,91.32,0,0,1,7.805,30.753,77.272,77.272,0,0,0,1.483,13.464,16.391,16.391,0,0,0,7.805,10.732c3.707,1.912,8.781,2.146,10.732,5.776a10.342,10.342,0,0,1,.663,5.971,94.065,94.065,0,0,1-3.629,18.616c-1.951,6.517-4.371,14.245,0,19.513a15.883,15.883,0,0,0-2.264,5.932,5,5,0,0,0,3.9,1.834,6.983,6.983,0,0,0,2.927-.936v.234a3.669,3.669,0,0,0,2.381,3.512,2.771,2.771,0,0,0,1.483.312,2.85,2.85,0,0,0,1.483-.312,3.08,3.08,0,0,0,1.21-.781l.624-.781a3.9,3.9,0,0,0,.507-1.951v-1.015a3.9,3.9,0,0,0-1.015-1.717l-.781-.585a3,3,0,0,0-1.4-.469h-.585l.351-.429a54.635,54.635,0,0,0,7.571-27.592Z" transform="translate(117.102 -68.575)" fill="#fcf7ea"/><path d="M336.411,273.742a42.928,42.928,0,0,1-9.639,16.079c-4.566,4.1-11.942,5.581-14.167,11.279-1.639,4.1,0,8.82-.819,13.113-1.483,6.556-8.664,9.913-14.947,12.332a17.015,17.015,0,0,1-9.288,1.6,16.748,16.748,0,0,1,2.576-5.7c2.888-4.176,6.947-7.532,9.483-11.942a36.2,36.2,0,0,1,4.566-7.805c2.42-2.5,6.088-3.473,8.781-5.737,5.659-4.761,5.737-13.776,10.888-19.084a12.02,12.02,0,0,1,12.566-4.137Z" transform="translate(85.086 61.545)" fill="#fcf7ea"/><path d="M308.149,402.778a28.215,28.215,0,0,1-20.02,3.9,21.661,21.661,0,0,1-9.679-3.278,30.82,30.82,0,0,0-5.19-3.591,12.215,12.215,0,0,0-10.927,2.225,46.832,46.832,0,0,1-9.757,6.166c-10.459,3.59-18.147-4.41-22.6-13.7a46.835,46.835,0,0,1-3.9-13.074c-.429-3.2-.234-6.479-.585-9.679-.82-7.454-4.878-9.874-8.313-15.377a19.942,19.942,0,0,1,.39-17.367,47.34,47.34,0,0,1,12.1-15.3,33.992,33.992,0,0,1-14.089-27.748,44.2,44.2,0,0,1,0-5.581,87.381,87.381,0,0,1,7.025-25.757c3.551-8.781,9.366-18.577,18.811-19.2a15.614,15.614,0,0,1,3.317.2,20.021,20.021,0,0,1,13.815,12.567,63.3,63.3,0,0,1,2.888,22.557c.2,7.805.741,15.806,1.678,23.65a34.03,34.03,0,0,1,0,12.723c-.937,3.669-3.2,6.947-3.9,10.693-1.327,6.244,1.6,12.528,4.683,18.108a45.151,45.151,0,0,0,13.152,16.625c6.361,4.332,14.245,5.464,21.543,7.805a28.217,28.217,0,0,1,14.83,9.718,15.067,15.067,0,0,1,2.107,4.449A17.445,17.445,0,0,1,308.149,402.778Z" transform="translate(-124.401 -19.489)" fill="#fcf7ea"/><path d="M308.149,369.326a28.216,28.216,0,0,1-20.02,3.9,21.661,21.661,0,0,1-9.679-3.278,30.823,30.823,0,0,0-5.19-3.591,12.215,12.215,0,0,0-10.927,2.225,46.832,46.832,0,0,1-9.757,6.166c-10.459,3.59-18.147-4.41-22.6-13.7a46.834,46.834,0,0,1-3.9-13.074c-.429-3.2-.234-6.479-.585-9.679-.82-7.454-4.878-9.874-8.313-15.376a19.942,19.942,0,0,1,.39-17.367,47.34,47.34,0,0,1,12.1-15.3,33.992,33.992,0,0,1-14.089-27.748,44.2,44.2,0,0,1,0-5.581,32.842,32.842,0,0,0,1.171,3.669,47.3,47.3,0,0,0,9.21,15.181c1.171,1.288,12.684,12.059,14.284,10.42a31.651,31.651,0,0,0-6.791,15.22c-.585,2.3-1.171,4.605-1.717,6.908-1.483,5.893-2.732,12.8,1.132,17.484a23.762,23.762,0,0,1,2.849,3.434,13.309,13.309,0,0,1,0,8.7A26.265,26.265,0,0,0,246.8,363.667a8.545,8.545,0,0,0,3.9,1.678c6.986.859,11.162-10.888,18.03-9.249,3.4.781,5.191,4.605,8.352,6.049a13.9,13.9,0,0,0,6.088.781c8.313-.273,17.445-.781,23.416-6.478a38.286,38.286,0,0,0,6.752-9.835,15.059,15.059,0,0,1,2.107,4.449,17.445,17.445,0,0,1-7.3,18.264Z" transform="translate(-124.401 13.963)" fill="#f5dbbc"/><path d="M250.859,236.589a31.964,31.964,0,0,0-3.9,12.371,47.872,47.872,0,0,0,.663,5.229,29.465,29.465,0,0,1-6.517,17.172c-4.41,5.854-10.381,9.8-15.884,6.049A8.078,8.078,0,0,1,222.213,270a18.068,18.068,0,0,1,3.083-7.805,71.533,71.533,0,0,1,8.625-10.42,14.908,14.908,0,0,1-4.488-22.44,20.92,20.92,0,0,1,7.766-6.751c4.332-2.068,10.3-2.225,13.269,1.522A12.488,12.488,0,0,1,250.859,236.589Z" transform="translate(-104.771 -89.956)" fill="#fcf7ea"/><path d="M241.1,265.261c-4.41,5.854-10.381,9.8-15.884,6.049a8.078,8.078,0,0,1-3.005-7.415,18.069,18.069,0,0,1,3.083-7.805,71.537,71.537,0,0,1,8.625-10.42,14.908,14.908,0,0,1-4.488-22.44c.546,2.459,0,5.542.663,7.805a20.606,20.606,0,0,0,4.878,9.132c1.912,2.029,4.371,3.9,4.332,6.791s-2.927,4.956-4.917,7.22a13.62,13.62,0,0,0-3.4,8.313,3.512,3.512,0,0,0,.9,3.044c2.185,1.8,5.386-1.99,8.079-1.093a2.849,2.849,0,0,1,1.132.819Z" transform="translate(-104.771 -83.856)" fill="#f5dbbc"/><path d="M288.228,297.966a13.894,13.894,0,0,0-12.84,4.839c-3.005,3-6.752,8.313-4.215,12.645s9.405,3.512,13.035,1.054a12.879,12.879,0,0,0,5.269-7.3h.2a6.205,6.205,0,0,0-1.444-11.239Z" transform="translate(35.118 132.585)" fill="#fcf7ea"/><path d="M280.676,297.119a2.97,2.97,0,0,0-.586-1.093,3.005,3.005,0,0,0-2.771-.625,2.926,2.926,0,0,0-1.678,1.288,2.732,2.732,0,0,0-.312.781l-.2.546a2.42,2.42,0,0,0,2.966,2.927h.507a3.045,3.045,0,0,0,.819-.351,2.849,2.849,0,0,0,1.288-1.639,2.732,2.732,0,0,0-.039-1.834Z" transform="translate(48.836 125.314)" fill="#fcf7ea"/><path d="M277.648,304.711a5.736,5.736,0,0,0-1.483-2.537l-1.171-.9a5.818,5.818,0,0,0-2.888-.781,4.257,4.257,0,0,0-2.224.468,4.839,4.839,0,0,0-1.873,1.21,4.369,4.369,0,0,0-1.171,1.834,4.876,4.876,0,0,0-.507,2.225l.234,1.522a5.7,5.7,0,0,0,1.444,2.537l1.171.9a5.894,5.894,0,0,0,2.927.82,4.606,4.606,0,0,0,2.185-.508,3.9,3.9,0,0,0,1.873-1.21,4.373,4.373,0,0,0,1.171-1.834,3.905,3.905,0,0,0,.507-2.225Z" transform="translate(23.492 140.396)" fill="#fcf7ea"/><path d="M210.075,279.564a8.976,8.976,0,0,0-7.61-5.464c-7.142.429-6.713,11.357-2.264,14.752a9.834,9.834,0,0,0,6.869,4.215,3.9,3.9,0,0,0,5-3.9,18.264,18.264,0,0,0-1.99-9.6Z" transform="translate(-177.866 63.802)" fill="#fcf7ea"/><path d="M208.192,285.119l-.312-.742a2.575,2.575,0,0,0-.82-.9,2.3,2.3,0,0,0-1.054-.547H205.5a2.73,2.73,0,0,0-1.249,0h-.312l-.742.312a2.734,2.734,0,0,0-.858.781,2.031,2.031,0,0,0-.39.7,2.343,2.343,0,0,0-.234,1.171v.78l.273.742a3.318,3.318,0,0,0,1.834,1.4,4.136,4.136,0,0,0,2.186,0l.741-.312a2.186,2.186,0,0,0,.858-.82,1.754,1.754,0,0,0,.429-.663,2.615,2.615,0,0,0,.273-1.21Z" transform="translate(-164.08 89.233)" fill="#fcf7ea"/><path d="M205.707,231.39a3.9,3.9,0,0,0-4.683-3.59,14.051,14.051,0,0,0-6.205,3.9,9.6,9.6,0,0,0-1.6,8.859,4.566,4.566,0,0,0,4.293,3.278h.39a4.488,4.488,0,0,0,4.293-3.239c-.234,1.054,0,0,.273-.624v-.39A11.708,11.708,0,0,0,205.707,231.39Z" transform="translate(-190.046 -70.824)" fill="#fcf7ea"/><path d="M235.079,190.528l-.7-.937a4.5,4.5,0,0,0-3.083-1.21,4.332,4.332,0,0,0-3.084,1.289A4.839,4.839,0,0,0,227,191.738a4.526,4.526,0,0,0,0,2.5,4.1,4.1,0,0,0,1.093,1.912A5.073,5.073,0,0,0,231.1,197.4a4.878,4.878,0,0,0,3.9-2.264,4.994,4.994,0,0,0,.625-2.342,4.605,4.605,0,0,0-.547-2.264Z" transform="translate(-91.177 -185.014)" fill="#fcf7ea"/><path d="M207.114,217.2a2.381,2.381,0,0,0-1.6-.663,2.537,2.537,0,0,0-1.6.663,2.965,2.965,0,0,0-.468.742,2.108,2.108,0,0,0-.195.859,2.38,2.38,0,0,0,.663,1.6,2.342,2.342,0,0,0,1.6.663,2.225,2.225,0,0,0,1.6-.664,1.4,1.4,0,0,0,.468-.7,1.443,1.443,0,0,0,0-.9A2.107,2.107,0,0,0,207.114,217.2Z" transform="translate(-159.606 -103.274)" fill="#fcf7ea"/><path d="M306.831,221.349a4.853,4.853,0,0,1-.39-.507V220.3h0a4.915,4.915,0,0,0-1.249-1.444,2.5,2.5,0,0,0-1.132-.624,2.3,2.3,0,0,0-1.249-.351,2.537,2.537,0,0,0-1.327,0,3.9,3.9,0,0,0-1.873.585,5.7,5.7,0,0,0-2.576,3.551,8.578,8.578,0,0,0-.2,1.717,9.534,9.534,0,0,0,.2,1.522,2.488,2.488,0,0,0,0,.273,5.542,5.542,0,0,0,3.9,3.9,5.19,5.19,0,0,0,2.888,0,6.089,6.089,0,0,0,3.278-2.5,5.385,5.385,0,0,0,.742-2.771,5.269,5.269,0,0,0-1.014-2.81Z" transform="translate(112.052 -99.654)" fill="#fcf7ea"/><path d="M277.305,243.329a1.641,1.641,0,0,0-.234-.82,2.186,2.186,0,0,0-.7-1.054l-.664-.507-.781-.351a2.186,2.186,0,0,0-1.327,0,2.029,2.029,0,0,0-1.21.39l-.742.351a3.668,3.668,0,0,0-1.756,3.083h0a3,3,0,0,0,.312,1.327,2.5,2.5,0,0,0,.742,1.132l.7.546a3.162,3.162,0,0,0,1.756.507h0a3.669,3.669,0,0,0,3.083-1.756l.39-.741.312-.781a2.574,2.574,0,0,0,.117-1.327Z" transform="translate(33.825 -33.746)" fill="#fcf7ea"/><path d="M314.32,266.425a3.2,3.2,0,0,0-.351-1.483,3.081,3.081,0,0,0-.78-1.21l-.781-.625a4.1,4.1,0,0,0-1.912-.507h-.351a3.9,3.9,0,0,0-2.107.585,4.253,4.253,0,0,0-1.522,1.483c0,.468-.39.9-.547,1.366a3.964,3.964,0,0,0,4.956,4.917,7.8,7.8,0,0,0,1.327-.546,4.253,4.253,0,0,0,1.522-1.483,3.9,3.9,0,0,0,.585-2.107Z" transform="translate(138.126 30.421)" fill="#fcf7ea"/><path d="M290.909,291.6a2.655,2.655,0,0,0-.429-1.288l-.312-.741-.585-.781a3.238,3.238,0,0,0-1.249-.781,1.873,1.873,0,0,0-.937-.273,2.89,2.89,0,0,0-1.522,0h0a3.9,3.9,0,0,0-2.615,2.615h0v1.015a3.316,3.316,0,0,0,.351,1.483,1.754,1.754,0,0,0,.468.819,2.655,2.655,0,0,0,1.093.976l.741.351.82.351a2.847,2.847,0,0,0,1.4,0,1.8,1.8,0,0,0,.9-.234,2.928,2.928,0,0,0,1.093-.7l.546-.742.351-.819a2.459,2.459,0,0,0-.117-1.249Z" transform="translate(72.634 103.086)" fill="#fcf7ea"/></g><circle cx="5.5" cy="5.5" r="5.5" transform="translate(1403 876)" fill="url(#q)"/><circle cx="23.5" cy="23.5" r="23.5" transform="translate(1514 869)" fill="url(#q)"/><circle cx="23.5" cy="23.5" r="23.5" transform="translate(1721 766)" fill="url(#s)"/><circle cx="0.5" cy="0.5" r="0.5" transform="translate(1378 930)" fill="#fff"/><circle cx="0.5" cy="0.5" r="0.5" transform="translate(1396 924)" fill="#fff"/><circle cx="1.5" cy="1.5" r="1.5" transform="translate(1367 916)" fill="#fff"/><circle cx="1.5" cy="1.5" r="1.5" transform="translate(1271 877)" fill="#fff"/><circle cx="1.5" cy="1.5" r="1.5" transform="translate(1348 863)" fill="#fff"/><circle cx="1.5" cy="1.5" r="1.5" transform="translate(1257 807)" fill="#fff"/><circle cx="3.5" cy="3.5" r="3.5" transform="translate(1252 727)" fill="#fff"/><circle cx="1.5" cy="1.5" r="1.5" transform="translate(1232 705)" fill="#fff"/><circle cx="1.5" cy="1.5" r="1.5" transform="translate(1205 659)" fill="#fff"/><circle cx="0.5" cy="0.5" r="0.5" transform="translate(1641 911)" fill="#fff"/><circle cx="0.5" cy="0.5" r="0.5" transform="translate(1623 905)" fill="#fff"/><circle cx="1.5" cy="1.5" r="1.5" transform="translate(1650 897)" fill="#fff"/><circle cx="0.5" cy="0.5" r="0.5" transform="translate(1695 831)" fill="#fff"/><circle cx="0.5" cy="0.5" r="0.5" transform="translate(1713 837)" fill="#fff"/><circle cx="1.5" cy="1.5" r="1.5" transform="translate(1684 843)" fill="#fff"/><circle cx="3.5" cy="3.5" r="3.5" transform="translate(1829 628)" fill="#fff"/><circle cx="1.5" cy="1.5" r="1.5" transform="translate(1809 606)" fill="#fff"/><circle cx="1.5" cy="1.5" r="1.5" transform="translate(1782 560)" fill="#fff"/><circle cx="1.5" cy="1.5" r="1.5" transform="translate(1781 425)" fill="#fff"/><circle cx="1.5" cy="1.5" r="1.5" transform="translate(1808 471)" fill="#fff"/><circle cx="1.5" cy="1.5" r="1.5" transform="translate(1675 362)" fill="#fff"/><circle cx="1.5" cy="1.5" r="1.5" transform="translate(1648 408)" fill="#fff"/><circle cx="0.5" cy="0.5" r="0.5" transform="translate(1259 524)" fill="#fff"/><circle cx="0.5" cy="0.5" r="0.5" transform="translate(1277 518)" fill="#fff"/><circle cx="1.5" cy="1.5" r="1.5" transform="translate(1248 510)" fill="#fff"/><circle cx="1.5" cy="1.5" r="1.5" transform="translate(1152 471)" fill="#fff"/><circle cx="1.5" cy="1.5" r="1.5" transform="translate(1229 457)" fill="#fff"/><circle cx="1.5" cy="1.5" r="1.5" transform="translate(1138 401)" fill="#fff"/><circle cx="0.5" cy="0.5" r="0.5" transform="translate(1355 367)" fill="#fff"/><circle cx="0.5" cy="0.5" r="0.5" transform="translate(1337 361)" fill="#fff"/><circle cx="1.5" cy="1.5" r="1.5" transform="translate(1364 353)" fill="#fff"/><circle cx="1.5" cy="1.5" r="1.5" transform="translate(1460 314)" fill="#fff"/><circle cx="1.5" cy="1.5" r="1.5" transform="translate(1383 300)" fill="#fff"/><circle cx="1.5" cy="1.5" r="1.5" transform="translate(1474 244)" fill="#fff"/><circle cx="0.5" cy="0.5" r="0.5" transform="translate(1555 237)" fill="#fff"/><circle cx="0.5" cy="0.5" r="0.5" transform="translate(1537 243)" fill="#fff"/><circle cx="1.5" cy="1.5" r="1.5" transform="translate(1564 249)" fill="#fff"/><circle cx="1.5" cy="1.5" r="1.5" transform="translate(1660 288)" fill="#fff"/><circle cx="1.5" cy="1.5" r="1.5" transform="translate(1583 302)" fill="#fff"/><circle cx="1.5" cy="1.5" r="1.5" transform="translate(1674 358)" fill="#fff"/><g transform="translate(-41 184)"><circle cx="80.5" cy="80.5" r="80.5" transform="translate(1340 530)" opacity="0.29" fill="url(#b)"/><circle cx="69.5" cy="69.5" r="69.5" transform="translate(1351 541)" opacity="0.29" fill="url(#b)"/><circle cx="59.5" cy="59.5" r="59.5" transform="translate(1361 551)" opacity="0.38" fill="url(#b)"/><circle cx="54.5" cy="54.5" r="54.5" transform="translate(1366 556)" fill="url(#b)"/></g><path d="M21.146.1c9.8-1.425,17.175,13.109,16.475,32.464C34.772,111.382-.711,116.543,2.138,37.72,2.838,18.366,11.348,1.521,21.146.1Z" transform="matrix(0.819, 0.574, -0.574, 0.819, 1845.307, 811.045)" fill="url(#x)" style="mix-blend-mode:lighten;isolation:isolate"/><ellipse cx="69.24" cy="11.806" rx="69.24" ry="11.806" transform="translate(1044.163 756.866) rotate(30)" fill="url(#a)"/><circle cx="34.78" cy="34.78" r="34.78" transform="translate(1088.98 753.267) rotate(30)" fill="url(#b)"/><path d="M2.7,9.721A8.2,8.2,0,0,1,0,4,6.982,6.982,0,0,1,.954.55C10.7.2,21.73,0,33.41,0c13.9,0,26.875.281,37.867.767A6.9,6.9,0,0,1,72.112,4a8.06,8.06,0,0,1-2.5,5.513c-10.628.442-23,.7-36.2.7C22.422,10.21,12.009,10.035,2.7,9.721Z" transform="translate(1069.05 785.235) rotate(30)" fill="url(#a)"/><g transform="translate(1797.237 873.001)"><circle cx="15.5" cy="15.5" r="15.5" transform="translate(-0.237 -0.001)" opacity="0.29" fill="url(#b)"/><circle cx="13.5" cy="13.5" r="13.5" transform="translate(1.763 1.999)" opacity="0.29" fill="url(#b)"/><circle cx="11.5" cy="11.5" r="11.5" transform="translate(3.763 3.999)" opacity="0.38" fill="url(#b)"/><circle cx="10.5" cy="10.5" r="10.5" transform="translate(4.763 4.999)" fill="url(#b)"/></g><path d="M5.867.03c3-.436,5.256,4.012,5.042,9.934C10.036,34.085-.822,35.664.05,11.543.264,5.62,2.868.466,5.867.03Z" transform="matrix(0.819, 0.574, -0.574, 0.819, 1830.298, 382.092)" fill="url(#x)" style="mix-blend-mode:lighten;isolation:isolate"/><g transform="translate(1815.02 400.704)"><ellipse cx="5" cy="4.5" rx="5" ry="4.5" transform="translate(-0.02 0.296)" opacity="0.29" fill="url(#b)"/><ellipse cx="4" cy="4.5" rx="4" ry="4.5" transform="translate(0.98 0.296)" opacity="0.29" fill="url(#b)"/><circle cx="3.5" cy="3.5" r="3.5" transform="translate(0.98 1.296)" opacity="0.38" fill="url(#b)"/><ellipse cx="3" cy="3.5" rx="3" ry="3.5" transform="translate(1.98 1.296)" fill="url(#b)"/></g><g transform="translate(1212.844 293.225) rotate(-30)"><ellipse cx="26.545" cy="4.526" rx="26.545" ry="4.526" transform="translate(0 7.829)" fill="url(#ak)"/><ellipse cx="13.334" cy="13.334" rx="13.334" ry="13.334" transform="translate(14.19 0)" fill="url(#b)"/><path d="M1.035.188A3.145,3.145,0,0,0,0,2.38,2.677,2.677,0,0,0,.366,3.7c3.737.135,7.965.211,12.443.211,5.328,0,10.3-.108,14.517-.294a2.645,2.645,0,0,0,.32-1.24A3.09,3.09,0,0,0,26.688.267C22.613.1,17.871,0,12.808,0,8.6,0,4.6.067,1.035.188Z" transform="translate(13.701 8.318)" fill="url(#ak)"/></g><circle cx="0.5" cy="0.5" r="0.5" transform="translate(1137 780)" fill="#fff"/><circle cx="1.5" cy="1.5" r="1.5" transform="translate(1126 766)" fill="#fff"/><circle cx="1.5" cy="1.5" r="1.5" transform="translate(1030 727)" fill="#fff"/><circle cx="1.5" cy="1.5" r="1.5" transform="translate(1107 713)" fill="#fff"/><circle cx="1.5" cy="1.5" r="1.5" transform="translate(1016 657)" fill="#fff"/><circle cx="0.5" cy="0.5" r="0.5" transform="translate(1034 887)" fill="#fff"/><circle cx="1.5" cy="1.5" r="1.5" transform="translate(1023 873)" fill="#fff"/><circle cx="1.5" cy="1.5" r="1.5" transform="translate(927 834)" fill="#fff"/><circle cx="1.5" cy="1.5" r="1.5" transform="translate(1004 820)" fill="#fff"/><circle cx="1.5" cy="1.5" r="1.5" transform="translate(913 764)" fill="#fff"/><circle cx="1.5" cy="1.5" r="1.5" transform="matrix(0.799, 0.602, -0.602, 0.799, 1717.419, 205.635)" fill="#fff"/><circle cx="0.5" cy="0.5" r="0.5" transform="matrix(0.799, 0.602, -0.602, 0.799, 1839.629, 201.313)" fill="#fff"/><circle cx="0.5" cy="0.5" r="0.5" transform="matrix(0.799, 0.602, -0.602, 0.799, 1821.643, 195.272)" fill="#fff"/><circle cx="1.5" cy="1.5" r="1.5" transform="matrix(0.799, 0.602, -0.602, 0.799, 1839.595, 216.313)" fill="#fff"/><circle cx="1.5" cy="1.5" r="1.5" transform="matrix(0.799, 0.602, -0.602, 0.799, 1822.873, 270.075)" fill="#fff"/><circle cx="1.5" cy="1.5" r="1.5" transform="matrix(0.799, 0.602, -0.602, 0.799, 1892.793, 305.234)" fill="#fff"/><circle cx="1.5" cy="1.5" r="1.5" transform="matrix(0.799, 0.602, -0.602, 0.799, 1715.419, 876.635)" fill="#fff"/><circle cx="1.5" cy="1.5" r="1.5" transform="matrix(0.799, 0.602, -0.602, 0.799, 1662.349, 819.115)" fill="#fff"/><circle cx="1.5" cy="1.5" r="1.5" transform="matrix(0.799, 0.602, -0.602, 0.799, 1768.727, 829.156)" fill="#fff"/><circle cx="0.5" cy="0.5" r="0.5" transform="matrix(0.799, 0.602, -0.602, 0.799, 1837.629, 872.313)" fill="#fff"/><circle cx="0.5" cy="0.5" r="0.5" transform="matrix(0.799, 0.602, -0.602, 0.799, 1819.643, 866.272)" fill="#fff"/><circle cx="1.5" cy="1.5" r="1.5" transform="matrix(0.799, 0.602, -0.602, 0.799, 1837.595, 887.313)" fill="#fff"/><circle cx="1.5" cy="1.5" r="1.5" transform="matrix(0.799, 0.602, -0.602, 0.799, 1820.873, 941.075)" fill="#fff"/><circle cx="1.5" cy="1.5" r="1.5" transform="matrix(0.799, 0.602, -0.602, 0.799, 1890.793, 976.234)" fill="#fff"/><path d="M-454.837,749s430.993-89.227,631.546-84.927S612.277,714.1,713.321,714.1c71.563,0,122.719-1.6,159.238-3.96V749Z" transform="translate(1047.441 331)" fill="#1a4cc3" opacity="0.26"/><circle cx="9.5" cy="9.5" r="9.5" transform="translate(1861 669)" fill="url(#i)"/><circle cx="17.5" cy="17.5" r="17.5" transform="translate(1853 661)" opacity="0.09" fill="url(#i)"/><path d="M21.146.1c9.8-1.425,17.175,13.109,16.475,32.464C34.772,111.382-.711,116.543,2.138,37.72,2.838,18.366,11.348,1.521,21.146.1Z" transform="matrix(0.799, -0.602, 0.602, 0.799, 1095.282, 341.311)" fill="url(#x)" style="mix-blend-mode:lighten;isolation:isolate"/><g transform="matrix(0.309, -0.951, 0.951, 0.309, 1139.351, 406.173)"><circle cx="15.5" cy="15.5" r="15.5" transform="translate(-0.237 -0.001)" opacity="0.29" fill="url(#b)"/><circle cx="13.5" cy="13.5" r="13.5" transform="translate(1.763 1.999)" opacity="0.29" fill="url(#b)"/><circle cx="11.5" cy="11.5" r="11.5" transform="translate(3.763 3.999)" opacity="0.38" fill="url(#b)"/><circle cx="10.5" cy="10.5" r="10.5" transform="translate(4.763 4.999)" fill="url(#b)"/></g><circle cx="34.78" cy="34.78" r="34.78" transform="translate(1088.98 753.267) rotate(30)" fill="url(#b)"/><path d="M2.7,9.721A8.2,8.2,0,0,1,0,4,6.982,6.982,0,0,1,.954.55C10.7.2,21.73,0,33.41,0c13.9,0,26.875.281,37.867.767A6.9,6.9,0,0,1,72.112,4a8.06,8.06,0,0,1-2.5,5.513c-10.628.442-23,.7-36.2.7C22.422,10.21,12.009,10.035,2.7,9.721Z" transform="translate(1069.05 785.235) rotate(30)" fill="url(#a)"/><path d="M21.146.1c9.8-1.425,17.175,13.109,16.475,32.464C34.772,111.382-.711,116.543,2.138,37.72,2.838,18.366,11.348,1.521,21.146.1Z" transform="matrix(0.799, -0.602, 0.602, 0.799, 1095.282, 341.311)" fill="url(#x)" style="mix-blend-mode:lighten;isolation:isolate"/><g transform="matrix(0.309, -0.951, 0.951, 0.309, 1139.351, 406.173)"><circle cx="15.5" cy="15.5" r="15.5" transform="translate(-0.237 -0.001)" opacity="0.29" fill="url(#b)"/><circle cx="13.5" cy="13.5" r="13.5" transform="translate(1.763 1.999)" opacity="0.29" fill="url(#b)"/><circle cx="11.5" cy="11.5" r="11.5" transform="translate(3.763 3.999)" opacity="0.38" fill="url(#b)"/><circle cx="10.5" cy="10.5" r="10.5" transform="translate(4.763 4.999)" fill="url(#b)"/></g><circle cx="112.5" cy="112.5" r="112.5" transform="translate(807 428)" fill="url(#bb)"/></g></svg>